<?xml version="1.0" encoding="utf-8"?>
<!-- Generator: Adobe Illustrator 19.0.0, SVG Export Plug-In . SVG Version: 6.00 Build 0)  -->
<svg version="1.1" id="Layer_1" xmlns="http://www.w3.org/2000/svg" xmlns:xlink="http://www.w3.org/1999/xlink" x="0px" y="0px"
	 viewBox="0 0 2520 5184" style="enable-background:new 0 0 2520 5184;" xml:space="preserve">
<style type="text/css">
	.st0{fill:#FFFFFF;stroke:#FFFFFF;stroke-width:8;stroke-miterlimit:10;}
	.st1{fill:#FFFFFF;stroke:#FFFFFF;stroke-width:2;stroke-miterlimit:10;}
	.st2{fill:#FFFFFF;stroke:#FFFFFF;stroke-miterlimit:10;}
	.st3{font-family:'Pacifico-Regular';}
	.st4{font-size:97.7303px;}
	.st5{fill:#FFFFFF;stroke:#FFFFFF;stroke-width:4;stroke-miterlimit:10;}
	.st6{fill:#FFFFFF;stroke:#FFFFFF;stroke-width:6;stroke-miterlimit:10;}
	.st7{fill:#FFFFFF;stroke:#FFFFFF;stroke-width:9;stroke-miterlimit:10;}
	.st8{fill:#FFFFFF;stroke:#FFFFFF;stroke-width:11;stroke-miterlimit:10;}
</style>
<g id="XMLID_2_">
	<rect x="1126.1" y="2634.8" class="st0" width="118.2" height="20.2"/>
	<g id="XMLID_3_">
		<path id="XMLID_4_" class="st1" d="M1148.4,2460.2l-0.3-0.1l-45,43.7c0,0-3.9,1.1-4.6,0.4c-0.7-0.7-0.1-3.9-0.1-3.9l43.5-46.6
			l-0.1-0.3l-0.3-0.2l-47.4,42.7c0,0-1.6,0.4-2.2-0.3c-0.6-0.6-0.7-2.1-0.7-2.1l44-46.7l-0.2-0.3l-0.3-0.2l-48.3,42.3
			c0,0-2,0.3-2.6-0.4c-0.7-0.7-0.5-4.2-0.5-4.2l45.2-44.1l-0.1-0.3l-0.3-0.2c0,0-55,42.1-62.7,48.8l-2.8,23.2
			c-1.1,2.7-7.6,9.4-17.2,18.4l11.1,11.4c9.4-9.4,16.4-15.7,19.1-16.8c10.9-4.5,18.2-3.8,21-2.3c0.8,0.4,52.1-61.5,52.1-61.5
			L1148.4,2460.2z"/>
		<path id="XMLID_5_" class="st1" d="M1016.7,2555.4c-32.6,28.3-72.7,61.4-85.7,72.1c-5.6,4.6-5.5,17.9-3.4,29.2
			c11.3,2.4,23.4,0,28.1-5.5c10.8-12.7,44.7-50.9,73.8-82.1L1016.7,2555.4z"/>
		<g id="XMLID_6_">
			<text id="XMLID_7_" transform="matrix(0.8089 0 0 1 586.7936 2797.3213)" class="st2 st3 st4">Your favourite restaurants in a lunch box</text>
			<g id="XMLID_8_">
				<path id="XMLID_9_" class="st5" d="M1238.7,2474c-14.4,0.3-28.2,8.8-36.8,19.5c-4.3,5.4-5.8,12.2-5.2,19.4
					c1.5,21.5,25.7,24.2,48.6,26.3c29.4,3.6,65.7,11,74,44.5c0.9,4.5,1.5,9.6,1.5,13.7c0,35.1-31,54-64.5,58.7
					c-2.9,0.4-5.7,0.8-8.6,0.9c-2.1,0.1-4.2,0-6.3,0c-33,0-29.5-23.5-9.6-23.5c22.9,0,57.8-15,57.8-36.5c0-2.1-0.3-4.5-0.9-7.2
					c-3.7-15.8-25.7-18.5-47.1-20.6c-33.3-3.3-72.5-10.4-75.8-54v0.3c-1.2-14,2.4-28,11.6-39.7c12.5-15.8,33.1-27.6,54.7-29.8
					c3.3-0.3,7.8-0.2,11.1-0.2c29.2,0,19.8,21.9,4.3,27.1c-0.8,0.3-2.1,0.1-3.5,0.2C1242.1,2473.5,1239.9,2474,1238.7,2474z"/>
				<polyline id="XMLID_11_" class="st1" points="772.3,2618 772.4,2595.7 772.4,2448.2 925.9,2448.2 901.7,2472.8 803.3,2472.8
					802.2,2542.3 882.6,2542.1 882.6,2570 802.2,2569.2 802.4,2631.4 901.4,2631.4 928.4,2658.7 769.6,2658.7 628.9,2523.1
					628.9,2658.7 596.5,2658.7 596.5,2448.2 772.3,2618 				"/>
				<path id="XMLID_12_" class="st6" d="M1711.5,2450.2h89.9c17.8,0,32.1,5,43.1,15.1c10.9,10.1,16.4,24.3,16.4,42.6
					c0,15.7-4.9,29.4-14.6,41c-9.8,11.7-24.7,17.5-44.8,17.5h-62.8v85.1h-27.2V2450.2z M1817.1,2477.9c-6-2.8-14.2-4.3-24.6-4.3
					h-53.8v69.8h53.8c12.1,0,22-2.6,29.5-7.8c7.6-5.2,11.3-14.4,11.3-27.5C1833.4,2493.2,1827.9,2483.2,1817.1,2477.9z"/>
				<rect x="1233.9" y="2448.8" class="st7" width="258.5" height="22.4"/>
				<rect id="XMLID_15_" x="1381.9" y="2473.2" class="st8" width="22.4" height="181.7"/>
				<path class="st1" d="M945.9,2442.9c-7.1-8.3-14.6,0.7-10.4,15.8c6.8,25,52.2,78.2,88.5,92.6c0.8,0.4,1.1,0.6,1.8,1
					c14.4,9.5,72.4,80.1,90,101.7c4.6,5.6,13.7,5.9,25,3.8l0,0c2.3-11.3-0.7-22.7-6.2-27.4c-11.3-9.7-54.3-53.5-94.3-93.6
					L945.9,2442.9z"/>
				<g id="XMLID_16_">
					<path id="XMLID_17_" class="st6" d="M1546.6,2450v124.4c0,14.6,2.8,26.8,8.3,36.5c8.2,14.6,22,21.9,41.4,21.9
						c23.3,0,39.1-7.9,47.5-23.7c4.5-8.6,6.8-20.1,6.8-34.7l0.5-171.8h27.5L1678,2563c0,24.8-3.3,43.8-10,57.2
						c-12.3,24.3-35.4,36.5-69.5,36.5c-34,0-57.2-12.2-69.3-36.5c-6.7-13.3-10-32.4-10-57.2V2450H1546.6z"/>
					<path id="XMLID_19_" class="st2" d="M1664.5,2340l-31.8,54.6c0,0,28.7-28.6,64.5,0l-31.8-54.6"/>
				</g>
			</g>
		</g>
	</g>
</g>
</svg>
