<?xml version="1.0" encoding="utf-8"?>
<!-- Generator: Adobe Illustrator 19.0.0, SVG Export Plug-In . SVG Version: 6.00 Build 0)  -->
<svg version="1.1" id="Layer_1" xmlns="http://www.w3.org/2000/svg" xmlns:xlink="http://www.w3.org/1999/xlink" x="0px" y="0px"
	 viewBox="0 0 2520 5184" style="enable-background:new 0 0 2520 5184;" xml:space="preserve">
<style type="text/css">
	.st0{fill:#FFFFFF;stroke:#FFFFFF;stroke-width:8;stroke-miterlimit:10;}
	.st1{fill:#FFFFFF;stroke:#FFFFFF;stroke-width:2;stroke-miterlimit:10;}
	.st2{fill:#FFFFFF;stroke:#FFFFFF;stroke-miterlimit:10;}
	.st3{font-family:'Pacifico-Regular';}
	.st4{font-size:37.0151px;}
	.st5{fill:#FFFFFF;stroke:#FFFFFF;stroke-width:4;stroke-miterlimit:10;}
	.st6{fill:#FFFFFF;stroke:#FFFFFF;stroke-width:6;stroke-miterlimit:10;}
	.st7{fill:#FFFFFF;stroke:#FFFFFF;stroke-width:9;stroke-miterlimit:10;}
	.st8{fill:#FFFFFF;stroke:#FFFFFF;stroke-width:11;stroke-miterlimit:10;}
</style>
<g id="XMLID_2_">
	<rect id="XMLID_21_" x="1559" y="2745.9" class="st0" width="44.7" height="7.6"/>
	<g id="XMLID_3_">
		<path id="XMLID_4_" class="st1" d="M1567.5,2679.7l-0.1-0.1l-17,16.6c0,0-1.5,0.4-1.8,0.1c-0.3-0.3,0-1.5,0-1.5l16.5-17.6
			l-0.1-0.1l-0.1-0.1l-17.9,16.2c0,0-0.6,0.1-0.8-0.1c-0.2-0.2-0.3-0.8-0.3-0.8l16.7-17.7l-0.1-0.1l-0.1-0.1l-18.3,16
			c0,0-0.7,0.1-1-0.1c-0.3-0.3-0.2-1.6-0.2-1.6l17.1-16.7l-0.1-0.1l-0.1-0.1c0,0-20.8,15.9-23.7,18.5l-1.1,8.8c-0.4,1-2.9,3.6-6.5,7
			l4.2,4.3c3.6-3.6,6.2-6,7.2-6.4c4.1-1.7,6.9-1.4,8-0.9c0.3,0.2,19.7-23.3,19.7-23.3L1567.5,2679.7z"/>
		<path id="XMLID_5_" class="st1" d="M1517.6,2715.8c-12.3,10.7-27.5,23.3-32.4,27.3c-2.1,1.7-2.1,6.8-1.3,11.1
			c4.3,0.9,8.9,0,10.6-2.1c4.1-4.8,16.9-19.3,28-31.1L1517.6,2715.8z"/>
		<g id="XMLID_6_">
			<text id="XMLID_7_" transform="matrix(0.8089 0 0 1 1354.7812 2807.3926)" class="st2 st3 st4">Your favourite restaurants in a lunch box</text>
			<g id="XMLID_8_">
				<path id="XMLID_9_" class="st5" d="M1601.7,2684.9c-5.4,0.1-10.7,3.3-13.9,7.4c-1.6,2-2.2,4.6-2,7.3c0.6,8.1,9.7,9.2,18.4,9.9
					c11.1,1.4,24.9,4.2,28,16.8c0.3,1.7,0.6,3.6,0.6,5.2c0,13.3-11.7,20.5-24.4,22.2c-1.1,0.2-2.2,0.3-3.3,0.4c-0.8,0-1.6,0-2.4,0
					c-12.5,0-11.2-8.9-3.6-8.9c8.7,0,21.9-5.7,21.9-13.8c0-0.8-0.1-1.7-0.3-2.7c-1.4-6-9.7-7-17.8-7.8c-12.6-1.2-27.6-4-28.7-20.5
					v0.1c-0.4-5.3,0.9-10.6,4.4-15c4.7-6,12.5-10.5,20.7-11.3c1.2-0.1,3-0.1,4.2-0.1c11,0,7.5,8.3,1.6,10.3c-0.3,0.1-0.8,0-1.3,0.1
					C1603,2684.7,1602.1,2684.9,1601.7,2684.9z"/>
				<polyline id="XMLID_11_" class="st1" points="1425.1,2739.5 1424.9,2731 1424.9,2675.1 1483.2,2675.1 1474.1,2684.6 
					1436.8,2684.6 1436.4,2710.8 1466.8,2710.8 1466.8,2721.3 1436.4,2720.9 1436.4,2744.4 1473.9,2744.4 1484.2,2755 1424,2755 
					1370.8,2703.5 1370.8,2755 1358.6,2755 1358.6,2675.2 1425.1,2739.5 				"/>
				<path id="XMLID_12_" class="st6" d="M1780.6,2675.8h34.2c6.7,0,12.2,2,16.3,5.8c4.1,3.8,6.2,9.2,6.2,16.1c0,6-1.9,11.1-5.5,15.5
					c-3.7,4.4-9.4,6.5-17,6.5h-23.7v32.6h-10.6V2675.8z M1820.8,2686.5c-2.3-1.1-5.4-1.5-9.3-1.5h-20.3v26.1h20.3
					c4.6,0,8.3-0.9,11.2-2.9c2.9-2,4.3-5.4,4.3-10.4C1826.9,2692.2,1824.9,2688.5,1820.8,2686.5z"/>
				<rect id="XMLID_20_" x="1599.7" y="2675.3" class="st7" width="98.1" height="8.7"/>
				<rect id="XMLID_15_" x="1655.8" y="2684.7" class="st8" width="8.7" height="68.6"/>
				<path id="XMLID_1_" class="st1" d="M1490.8,2673.1c-2.7-3.2-5.5,0.3-3.9,6c2.6,9.5,19.8,29.6,33.5,35.1c0.3,0.2,0.4,0.2,0.7,0.4
					c5.5,3.6,27.4,30.4,34.1,38.5c1.7,2.1,5.2,2.2,9.5,1.4l0,0c0.9-4.3-0.3-8.6-2.3-10.4c-4.3-3.7-20.6-20.3-35.7-35.5
					L1490.8,2673.1z"/>
				<g id="XMLID_16_">
					<path id="XMLID_17_" class="st6" d="M1718.5,2675.8v47.1c0,5.5,1,10.1,3.1,13.8c3.1,5.5,8.3,8.3,15.6,8.3c8.8,0,14.8-3,18-9
						c1.7-3.3,2.5-7.6,2.5-13.1l0.2-65h10.4l-0.2,60.7c0,9.4-1.3,16.6-3.8,21.6c-4.6,9.2-13.4,13.8-26.3,13.8
						c-12.9,0-21.7-4.6-26.3-13.8c-2.5-5.1-3.8-12.3-3.8-21.7v-42.8H1718.5z"/>
					<path id="XMLID_19_" class="st2" d="M1763,2634.2l-12,20.7c0,0,10.9-10.8,24.4,0l-12-20.7"/>
				</g>
			</g>
		</g>
	</g>
</g>
</svg>
